<svg width="24" height="24" viewBox="0 0 24 24" fill="none" xmlns="http://www.w3.org/2000/svg">
<path d="M10.4301 15.59C10.4301 14.83 11.0401 14.96 11.8001 14.96H12.2001C12.9601 14.96 13.5701 14.83 13.5701 15.59" stroke="#E18C09" stroke-width="1.5" stroke-linecap="round" stroke-linejoin="round"/>
<path d="M12 14.96V18.33" stroke="#E18C09" stroke-width="1.5" stroke-linecap="round" stroke-linejoin="round"/>
<path d="M8.37 11.07V12.04" stroke="#E18C09" stroke-width="1.5" stroke-linecap="round" stroke-linejoin="round"/>
<path d="M15.63 11.07V12.04" stroke="#E18C09" stroke-width="1.5" stroke-linecap="round" stroke-linejoin="round"/>
<path d="M20.5799 13.97L15.9399 15.53" stroke="#E18C09" stroke-width="1.5" stroke-linecap="round" stroke-linejoin="round"/>
<path d="M19.8499 17.02L15.9399 17.9" stroke="#E18C09" stroke-width="1.5" stroke-linecap="round" stroke-linejoin="round"/>
<path d="M3.41003 13.97L8.06003 15.53" stroke="#E18C09" stroke-width="1.5" stroke-linecap="round" stroke-linejoin="round"/>
<path d="M4.15002 17.02L8.06002 17.9" stroke="#E18C09" stroke-width="1.5" stroke-linecap="round" stroke-linejoin="round"/>
<path d="M7.78004 4.82C5.84004 3.65 2.84004 2.09 1.85004 3C0.52004 4.23 3.40004 9.53 4.00004 10.51C4.17698 9.34327 4.60703 8.22939 5.26001 7.24645C5.913 6.26352 6.77311 5.43534 7.78004 4.82Z" stroke="#E18C09" stroke-width="1.5" stroke-linecap="round" stroke-linejoin="round"/>
<path d="M20.05 10.51C20.6 9.51 23.48 4.23 22.15 3C21.15 2.09 18.15 3.65 16.22 4.82C17.2362 5.42996 18.106 6.25577 18.7678 7.23901C19.4297 8.22226 19.8674 9.33891 20.05 10.51Z" stroke="#E18C09" stroke-width="1.5" stroke-linecap="round" stroke-linejoin="round"/>
<path d="M15 21.27H9C7.3 21.27 5.79 19.91 4.74 18.13C3.5 16 3.15 15 3.6 12.52L3.88 11C4.0764 8.98334 5.01696 7.11216 6.51823 5.7514C8.01949 4.39065 9.97381 3.63791 12 3.63999C14.0262 3.63791 15.9805 4.39065 17.4818 5.7514C18.983 7.11216 19.9236 8.98334 20.12 11L20.4 12.53C20.85 15 20.5 15.97 19.23 18.14C18.18 19.91 16.67 21.27 15 21.27Z" stroke="#E18C09" stroke-width="1.5" stroke-linecap="round" stroke-linejoin="round"/>
</svg>
