<svg width="24" height="24" viewBox="0 0 24 24" fill="none" xmlns="http://www.w3.org/2000/svg">
<path d="M22.46 17.17L21.19 10.48C21.0132 9.54464 20.5493 8.68762 19.8629 8.0281C19.1765 7.36857 18.3016 6.9393 17.36 6.79999C18.0723 7.75449 18.5113 8.88491 18.63 10.07L19.09 14.62C19.1569 15.2484 19.0948 15.8839 18.9073 16.4875C18.7199 17.0911 18.4111 17.65 18 18.13C18.1326 18.7254 18.4963 19.2437 19.0111 19.571C19.5259 19.8982 20.1496 20.0076 20.745 19.875C21.3404 19.7424 21.8587 19.3787 22.186 18.8639C22.5132 18.3491 22.6226 17.7254 22.49 17.13L22.46 17.17Z" stroke="#E18C09" stroke-width="1.5" stroke-linecap="round" stroke-linejoin="round"/>
<path d="M4.91 14.62L5.37 10.07C5.48864 8.88491 5.92767 7.75449 6.64 6.79999C5.69834 6.9393 4.82348 7.36857 4.13707 8.0281C3.45066 8.68762 2.98681 9.54464 2.81 10.48L1.54 17.17C1.40739 17.7654 1.51674 18.3891 1.84399 18.9039C2.17124 19.4187 2.68959 19.7824 3.285 19.915C3.88041 20.0476 4.50411 19.9382 5.0189 19.611C5.53369 19.2837 5.89739 18.7654 6.03 18.17C5.60835 17.6876 5.29115 17.1232 5.09839 16.5122C4.90563 15.9013 4.84149 15.257 4.91 14.62Z" stroke="#E18C09" stroke-width="1.5" stroke-linecap="round" stroke-linejoin="round"/>
<path d="M14.42 19.74H9.58004C8.927 19.743 8.28057 19.6091 7.68251 19.3468C7.08446 19.0845 6.54806 18.6996 6.10797 18.2171C5.66789 17.7346 5.33389 17.1652 5.12754 16.5456C4.9212 15.926 4.84711 15.27 4.91004 14.62L5.37004 10.07C5.52944 8.42386 6.29742 6.89644 7.52368 5.78671C8.74994 4.67697 10.3462 4.0648 12 4.07001C13.6539 4.0648 15.2501 4.67697 16.4764 5.78671C17.7027 6.89644 18.4706 8.42386 18.63 10.07L19.09 14.62C19.153 15.27 19.0789 15.926 18.8725 16.5456C18.6662 17.1652 18.3322 17.7346 17.8921 18.2171C17.452 18.6996 16.9156 19.0845 16.3176 19.3468C15.7195 19.6091 15.0731 19.743 14.42 19.74Z" stroke="#E18C09" stroke-width="1.5" stroke-linecap="round" stroke-linejoin="round"/>
<path d="M11.9999 16.14L10.5699 14.53C10.5699 14.1985 10.7016 13.8805 10.9361 13.6461C11.1705 13.4117 11.4884 13.28 11.8199 13.28H12.1799C12.5115 13.28 12.8294 13.4117 13.0638 13.6461C13.2983 13.8805 13.4299 14.1985 13.4299 14.53L11.9999 16.14Z" stroke="#E18C09" stroke-width="1.5" stroke-linecap="round" stroke-linejoin="round"/>
<path d="M12 16.14V19.74" stroke="#E18C09" stroke-width="1.5" stroke-linecap="round" stroke-linejoin="round"/>
<path d="M8.84998 10.14V10.98" stroke="#E18C09" stroke-width="1.5" stroke-linecap="round" stroke-linejoin="round"/>
<path d="M15.15 10.14V10.98" stroke="#E18C09" stroke-width="1.5" stroke-linecap="round" stroke-linejoin="round"/>
</svg>
