<svg width="31" height="33" viewBox="0 0 31 33" fill="none" xmlns="http://www.w3.org/2000/svg">
<path d="M15.2351 16.0525C12.8948 14.7645 11.1651 16.555 7.94764 17.2572C3.28408 18.3225 2.39155 21.1532 3.96052 22.7757C5.5295 24.3983 8.31634 23.2142 10.3071 24.5547C12.3462 25.7422 12.7067 28.8218 14.8635 29.3721C16.9961 29.999 19.0211 27.7998 17.6669 23.1205C16.731 20.0182 17.4276 17.5449 15.2351 16.0525Z" fill="#FFF1A6"/>
<path d="M10.4813 10.5299C10.5982 13.1748 9.47056 15.4944 7.97489 15.7143C6.40752 15.9103 5.05089 13.9302 4.93399 11.2852C4.81709 8.64031 5.9447 6.3207 7.44038 6.10077C9.00775 5.90476 10.3644 7.88493 10.4813 10.5299Z" fill="#FFF1A6"/>
<path d="M21.7832 17.4558C19.4719 18.4741 18.1667 20.5097 18.7775 21.9916C19.3883 23.4734 21.7365 23.9159 24.0478 22.8976C26.3591 21.8793 27.6644 19.8438 27.0536 18.3619C26.3678 16.8551 24.0195 16.4125 21.7832 17.4558Z" fill="#FFF1A6"/>
<path d="M18.1392 9.43771C17.2238 12.0798 15.1461 13.7089 13.6075 13.1063C12.0688 12.5037 11.5906 9.84332 12.506 7.20125C13.4214 4.55918 15.4991 2.93005 17.0378 3.53265C18.5764 4.13525 19.0546 6.79564 18.1392 9.43771Z" fill="#FFF1A6"/>
<path d="M19.3952 10.1023C17.7308 12.0777 17.4437 14.5127 18.6347 15.563C19.8981 16.6376 22.2021 15.9367 23.8432 14.0351C25.5075 12.0597 25.7946 9.62479 24.6036 8.57442C23.436 7.45018 21.0596 8.12684 19.3952 10.1023Z" fill="#FFF1A6"/>
</svg>
