<svg width="26" height="27" viewBox="0 0 26 27" fill="none" xmlns="http://www.w3.org/2000/svg">
<path d="M12.6451 13.9431C12.2245 16.6387 14.4341 17.7367 16.1287 20.6362C18.6285 24.8235 21.5212 24.7683 22.5008 22.7136C23.4804 20.6589 21.4833 18.3352 22.0662 15.9623C22.4927 13.5924 25.2055 12.2376 25.008 9.96103C24.8887 7.68297 22.2072 6.43108 18.3482 9.27368C15.802 11.1954 13.3018 11.3245 12.6451 13.9431Z" fill="#FFF1A6"/>
<path d="M9.1196 20.3665C11.5124 19.3903 14.012 19.7304 14.7018 21.113C15.3931 22.5731 14.0155 24.5379 11.6228 25.5141C9.23001 26.4902 6.73041 26.1502 6.04055 24.7676C5.34929 23.3075 6.72684 21.3427 9.1196 20.3665Z" fill="#FFF1A6"/>
<path d="M11.7996 7.11865C13.4892 9.034 15.7856 9.63938 16.9484 8.56225C18.1112 7.48513 17.7521 5.05751 16.0626 3.14216C14.373 1.22681 12.0765 0.62143 10.9137 1.69855C9.75244 2.8568 10.1115 5.28442 11.7996 7.11865Z" fill="#FFF1A6"/>
<path d="M5.61878 13.2765C8.34555 13.3051 10.5203 14.7941 10.4682 16.4867C10.4162 18.1793 8.127 19.5118 5.40024 19.4832C2.67347 19.4547 0.498666 17.9657 0.550759 16.2731C0.602852 14.5805 2.89202 13.248 5.61878 13.2765Z" fill="#FFF1A6"/>
<path d="M5.81993 11.8384C8.17826 12.8126 10.5097 12.2977 11.0867 10.7972C11.6623 9.21825 10.2669 7.20655 7.98407 6.23094C5.62575 5.25677 3.29427 5.77163 2.71726 7.27218C2.06477 8.77417 3.46161 10.8642 5.81993 11.8384Z" fill="#FFF1A6"/>
</svg>
