<svg width="66" height="68" viewBox="0 0 66 68" fill="none" xmlns="http://www.w3.org/2000/svg">
<path d="M32.4615 32.4016C29.8363 27.9448 25.1686 29.2416 19.0904 27.293C10.235 24.4974 6.01926 28.4183 7.13195 32.721C8.13599 36.9321 14.0077 37.7721 16.0005 41.8825C18.2801 45.861 15.9115 51.3397 19.0126 54.5157C22.005 57.6 27.4442 56.0193 29.7475 46.7474C31.2469 40.5357 34.9085 37.082 32.4615 32.4016Z" fill="#2F404C"/>
<path d="M29.8255 19.5249C27.8632 24.038 23.9061 26.4948 21.0897 25.241C18.2733 23.9873 17.6061 19.1258 19.677 14.7043C21.6392 10.1913 25.4877 7.64285 28.4128 8.98823C31.3378 10.3336 31.7877 15.0119 29.8255 19.5249Z" fill="#2F404C"/>
<path d="M41.8342 41.6146C37.0794 40.969 32.9941 43.1307 32.6052 46.3539C32.2162 49.5772 35.8019 52.6011 40.537 53.0433C45.2918 53.6889 49.3771 51.5272 49.7661 48.3039C50.155 45.0807 46.5693 42.0568 41.8342 41.6146Z" fill="#2F404C"/>
<path d="M43.6811 24.4816C39.8022 27.752 34.9671 28.347 32.8244 25.7923C30.6817 23.2377 32.2093 18.3581 36.0882 15.0876C39.9671 11.8172 44.8022 11.2222 46.9449 13.7769C49.0876 16.3316 47.56 21.2112 43.6811 24.4816Z" fill="#2F404C"/>
<path d="M44.9047 26.8217C40.0783 28.5454 37.1577 32.4372 38.2617 35.6111C39.3656 38.785 44.0704 39.9492 48.8968 38.2254C53.7232 36.5017 56.6438 32.61 55.5398 29.4361C54.4358 26.2622 49.7311 25.098 44.9047 26.8217Z" fill="#2F404C"/>
</svg>
