<svg width="30" height="31" viewBox="0 0 30 31" fill="none" xmlns="http://www.w3.org/2000/svg">
<path d="M14.4461 15.4319C11.9821 14.417 10.4548 16.3926 7.33215 17.4553C2.81117 19.0429 2.22739 21.9574 3.96068 23.3922C5.69397 24.827 8.33695 23.3342 10.4593 24.4409C12.6131 25.39 13.3015 28.4099 15.5041 28.7124C17.6908 29.0937 19.4679 26.6783 17.6205 22.1811C16.3579 19.2037 16.7852 16.6666 14.4461 15.4319Z" fill="#FFF1A6"/>
<path d="M9.1292 10.4816C9.52881 13.0971 8.65664 15.5304 7.19365 15.9186C5.65683 16.2911 4.09627 14.4768 3.69666 11.8612C3.29705 9.24569 4.16923 6.81237 5.63222 6.42422C7.16904 6.05171 8.72959 7.86602 9.1292 10.4816Z" fill="#FFF1A6"/>
<path d="M21.1045 16.0841C18.9164 17.3582 17.8372 19.5293 18.6031 20.9329C19.369 22.3365 21.7503 22.5101 23.9384 21.236C26.1265 19.9619 27.2057 17.7907 26.4398 16.3871C25.5967 14.9672 23.2154 14.7936 21.1045 16.0841Z" fill="#FFF1A6"/>
<path d="M16.6234 8.52804C15.9967 11.2578 14.1062 13.1125 12.5124 12.688C10.9185 12.2635 10.1582 9.67358 10.7849 6.94383C11.4116 4.21408 13.302 2.35933 14.8959 2.78382C16.4897 3.20831 17.2501 5.79828 16.6234 8.52804Z" fill="#FFF1A6"/>
<path d="M17.9434 9.04629C16.5008 11.1984 16.4764 13.651 17.7727 14.56C19.1436 15.4847 21.3584 14.527 22.7857 12.4509C24.2282 10.2988 24.2526 7.84619 22.9564 6.93724C21.6753 5.95223 19.3859 6.89418 17.9434 9.04629Z" fill="#FFF1A6"/>
</svg>
