<svg width="33" height="35" viewBox="0 0 33 35" fill="none" xmlns="http://www.w3.org/2000/svg">
<path d="M16.275 17.2342C14.9039 15.0644 12.6719 15.738 9.6879 14.8084C5.3417 13.5006 3.3426 15.4316 3.92449 17.5167C4.50638 19.6018 7.34688 19.9287 8.4044 21.9779C9.56998 23.9227 8.50087 26.6496 10.0473 28.1206C11.5397 29.6438 14.1987 28.7696 15.1535 24.2471C15.755 21.2308 17.4326 19.5044 16.275 17.2342Z" fill="#FFF1A6"/>
<path d="M14.7813 10.4129C13.703 12.6643 11.7358 14.0605 10.396 13.5399C9.00726 12.9658 8.76063 10.6836 9.83893 8.4322C10.9172 6.1808 12.8844 4.78465 14.2242 5.3052C15.6129 5.87933 15.8596 8.16155 14.7813 10.4129Z" fill="#FFF1A6"/>
<path d="M21.089 21.478C18.7171 21.2369 16.7286 22.3137 16.5773 23.8314C16.426 25.3492 18.1794 26.8207 20.5513 27.0617C22.9232 27.3028 24.9117 26.226 25.063 24.7083C25.1631 23.1345 23.4097 21.6629 21.089 21.478Z" fill="#FFF1A6"/>
<path d="M21.6261 13.1065C19.6918 14.8702 17.2424 15.2462 16.2325 14.0224C15.2225 12.7986 16.0076 10.3645 17.9419 8.6008C19.8762 6.83711 22.3256 6.46106 23.3355 7.68487C24.3455 8.90867 23.5603 11.3428 21.6261 13.1065Z" fill="#FFF1A6"/>
<path d="M22.3739 14.2488C20.1139 15.1068 18.7934 16.9939 19.3157 18.4261C19.8874 19.9124 22.1121 20.4136 24.32 19.606C26.58 18.7481 27.9004 16.861 27.3782 15.4288C26.9081 13.9462 24.6339 13.3909 22.3739 14.2488Z" fill="#FFF1A6"/>
</svg>
