<svg width="33" height="34" viewBox="0 0 33 34" fill="none" xmlns="http://www.w3.org/2000/svg">
<path d="M16.4527 16.5711C14.2995 14.9747 12.3539 16.5129 9.07426 16.7693C4.31445 17.1879 3.06423 19.8715 4.40974 21.6941C5.75525 23.5167 8.67032 22.7239 10.4703 24.3245C12.3379 25.7801 12.2976 28.8817 14.3641 29.7219C16.3968 30.6346 18.6879 28.7316 17.9501 23.9088C17.4232 20.706 18.4331 18.3499 16.4527 16.5711Z" fill="#FFF1A6"/>
<path d="M12.454 10.4477C12.2282 13.0852 10.811 15.2301 9.30022 15.2437C7.72143 15.2239 6.63257 13.0759 6.85831 10.4384C7.08406 7.80095 8.50127 5.65597 10.0121 5.64236C11.5909 5.66226 12.6797 7.81025 12.454 10.4477Z" fill="#FFF1A6"/>
<path d="M22.7614 18.8566C20.339 19.55 18.7825 21.3892 19.1964 22.9414C19.6104 24.4935 21.8807 25.253 24.3031 24.5596C26.7254 23.8661 28.282 22.027 27.868 20.4748C27.3829 18.8875 25.1126 18.1281 22.7614 18.8566Z" fill="#FFF1A6"/>
<path d="M20.1852 10.4117C18.9367 12.9052 16.667 14.236 15.2198 13.4285C13.7727 12.621 13.6423 9.91885 14.8908 7.42528C16.1394 4.93171 18.4091 3.60093 19.8562 4.40843C21.3034 5.21593 21.4337 7.91808 20.1852 10.4117Z" fill="#FFF1A6"/>
<path d="M21.3443 11.2421C19.4396 12.9727 18.8406 15.3467 19.8853 16.5505C20.9988 17.7882 23.3728 17.4084 25.2449 15.7479C27.1497 14.0174 27.7487 11.6433 26.704 10.4395C25.6919 9.16567 23.2491 9.51161 21.3443 11.2421Z" fill="#FFF1A6"/>
</svg>
