<svg width="56" height="50" viewBox="0 0 56 50" fill="none" xmlns="http://www.w3.org/2000/svg">
<path d="M37.5015 40.0232C38.6542 39.1053 39.7886 38.2442 40.8768 37.3263C44.3963 34.3624 47.5797 31.0845 49.9255 27.0591C53.8456 20.3327 52.7854 11.566 47.4522 6.24625C45.0909 3.89187 42.4033 3.15018 39.2606 4.36644C39.1555 4.40765 39.0463 4.43464 38.9133 4.47585C38.2396 3.15728 37.3027 2.19109 35.6486 1.95096C37.3909 0.96346 39.0911 0.336855 40.9272 0.118042C44.8052 -0.345162 47.8948 1.23058 50.4689 4.01264C57.0555 11.1284 57.8342 21.7096 52.403 30.1367C49.4703 34.6878 45.6469 38.3806 41.4356 41.6884C37.4231 44.8385 33.1389 47.5552 28.5984 49.8513C28.3113 49.9962 27.845 50.0616 27.5817 49.9252C20.0343 46.0547 13.0905 41.3261 7.333 34.9734C4.64961 32.0137 2.26593 28.8111 1.0965 24.9008C-1.32359 16.8133 0.22958 9.57961 6.08234 3.50539C9.68867 -0.237176 14.0807 -0.923455 18.813 1.16238C19.6393 1.52754 20.4292 1.97938 21.2149 2.38149C20.8452 2.97683 20.4825 3.47413 20.215 4.01833C19.9475 4.56394 19.7766 5.15786 19.5735 5.70348C18.5876 5.24312 17.6226 4.72308 16.61 4.33092C13.76 3.22548 11.148 3.73558 8.97861 5.87825C4.26727 10.5316 2.82334 16.1781 4.28128 22.6317C4.32749 22.8349 4.39892 23.0466 4.51236 23.2185C7.30639 27.4669 10.5724 31.2663 14.8202 34.0896C16.7137 35.3485 18.7934 36.1627 21.0679 36.4014C21.3452 36.4298 21.6267 36.4411 21.9054 36.4284C22.1351 36.4184 22.3619 36.363 22.6182 36.2067C22.4194 36.1413 22.2205 36.076 22.023 36.0092C19.0497 35.0046 16.3817 33.4957 14.3496 31.0291C13.9462 30.5389 13.704 29.8242 13.6087 29.1791C13.4561 28.1333 14.3272 27.4968 15.2221 28.0353C19.0987 30.3641 23.481 31.0404 27.7483 32.1061C28.922 32.3988 30.1292 32.6559 31.2272 33.1447C33.9442 34.3553 35.8405 36.4539 37.1052 39.1564C37.2214 39.4093 37.3363 39.6651 37.5015 40.0232Z" fill="#E18C09"/>
<path d="M20.2024 28.2456C21.7962 25.6099 23.5524 23.2811 26.0481 21.6158C27.852 20.4109 29.6461 20.4095 31.3771 21.7295C34.5745 24.1677 36.6669 27.4257 37.9329 31.2223C38.2915 32.2965 38.4021 33.4744 38.4791 34.6153C38.5128 35.1226 38.1794 35.654 37.9539 36.3587C37.552 35.8415 37.3069 35.5105 37.0464 35.1922C35.1641 32.8961 32.807 31.4226 29.9122 30.7619C26.9375 30.0828 23.988 29.2814 21.0301 28.5283C20.7864 28.4672 20.5525 28.3663 20.2024 28.2456Z" fill="#E18C09"/>
<path d="M30.2567 11.6285C30.2483 9.16614 30.9219 6.9098 32.3897 4.94757C32.8546 4.32523 33.4807 3.76967 34.1417 3.36473C35.4302 2.57614 36.7579 2.94557 37.6234 4.19736C38.29 5.15928 38.5505 6.2633 38.6108 7.40284C38.7578 10.1806 38.1304 12.7581 36.4372 14.9874C36.0072 15.5544 35.4372 16.0574 34.8378 16.4367C33.5087 17.2765 32.1306 16.9255 31.2398 15.6211C30.5634 14.6308 30.2623 13.4017 30.2567 11.6285Z" fill="#E18C09"/>
<path d="M20.3032 8.86491C20.2934 6.92542 20.516 5.5827 21.1281 4.33234C22.2695 2.00211 24.4193 1.69237 26.1321 3.62475C27.4066 5.06267 27.9766 6.83023 28.2567 8.69867C28.5298 10.5202 28.4836 12.3304 27.7539 14.0553C27.2749 15.1864 26.6517 16.2477 25.31 16.441C23.8815 16.647 22.9347 15.7945 22.1644 14.7203C20.7947 12.8149 20.3424 10.6225 20.3032 8.86491Z" fill="#E18C09"/>
<path d="M44.8836 19.8241C44.7282 22.15 43.9649 24.162 42.4846 25.8855C42.1372 26.2905 41.7255 26.6627 41.2815 26.9526C39.3026 28.2442 37.2522 27.5252 36.58 25.2404C35.8195 22.6559 36.3391 20.2049 37.7998 18.0153C38.3825 17.1429 39.192 16.3287 40.0743 15.7817C41.7381 14.7487 43.4481 15.3569 44.2254 17.177C44.5783 18.0011 44.6722 18.9389 44.8836 19.8241Z" fill="#E18C09"/>
<path d="M21.5749 20.7306C21.2584 21.7451 21.0679 22.8349 20.5903 23.7741C19.8214 25.2859 18.1884 25.7065 16.7641 24.8085C14.0597 23.1049 12.9379 20.5018 13.0121 17.366C13.0345 16.404 13.2446 15.3711 13.6521 14.5086C14.4154 12.8931 15.9686 12.4739 17.5568 13.2909C19.124 14.0966 20.0595 15.489 20.6519 17.0818C21.0735 18.2171 21.2584 19.4419 21.5749 20.7306Z" fill="#E18C09"/>
</svg>
