<svg width="31" height="33" viewBox="0 0 31 33" fill="none" xmlns="http://www.w3.org/2000/svg">
<path d="M15.0111 16.6238C12.5839 17.3051 12.5269 19.6969 10.7562 22.3365C8.21975 26.1951 9.39804 28.7423 11.5061 28.8081C13.6141 28.874 14.7831 26.1912 17.003 25.7803C19.1591 25.2316 21.3579 27.1105 23.1916 26.0442C25.0571 25.0468 25.0585 22.1756 21.1623 19.861C18.5529 18.3519 17.4661 16.1821 15.0111 16.6238Z" fill="#FFF1A6"/>
<path d="M8.23976 16.0065C9.99549 17.7494 10.6883 20.1022 9.79768 21.2559C8.84258 22.4412 6.65424 21.9867 4.89851 20.2439C3.14278 18.501 2.45003 16.1482 3.3406 14.9945C4.2957 13.8092 6.48403 14.2636 8.23976 16.0065Z" fill="#FFF1A6"/>
<path d="M20.4083 13.2022C19.4618 15.4522 19.8523 17.7285 21.2115 18.3395C22.5706 18.9506 24.4679 17.6818 25.4144 15.4318C26.3609 13.1818 25.9704 10.9056 24.6112 10.2945C23.1846 9.71647 21.2874 10.9853 20.4083 13.2022Z" fill="#FFF1A6"/>
<path d="M12.8209 10.1229C13.864 12.5556 13.4652 15.0696 12.024 15.6857C10.5829 16.3018 8.5686 14.7904 7.52549 12.3577C6.48238 9.92506 6.88117 7.41104 8.3223 6.79493C9.76344 6.17883 11.7777 7.69026 12.8209 10.1229Z" fill="#FFF1A6"/>
<path d="M14.1067 9.73888C14.2119 12.2144 15.5565 14.0834 17.0418 14.0086C18.5924 13.9019 19.7349 11.8754 19.6605 9.46636C19.5553 6.99084 18.2108 5.12186 16.7254 5.19666C15.2093 5.205 14.0016 7.26336 14.1067 9.73888Z" fill="#FFF1A6"/>
</svg>
