<svg width="32" height="32" viewBox="0 0 32 32" fill="none" xmlns="http://www.w3.org/2000/svg">
<path d="M15.9783 15.6822C13.9377 14.2018 12.0268 15.6416 8.85815 15.8913C4.25844 16.2972 2.99242 18.8019 4.24905 20.4957C5.50567 22.1896 8.33476 21.4412 10.0347 22.9268C11.8031 24.2769 11.6944 27.1671 13.6685 27.9432C15.6083 28.7869 17.8606 27.0061 17.2575 22.5146C16.8213 19.532 17.8482 17.3332 15.9783 15.6822Z" fill="#FFF1A6"/>
<path d="M12.2595 9.98963C11.9825 12.448 10.5676 14.4514 9.11026 14.4691C7.58814 14.4558 6.58634 12.4578 6.86332 9.99947C7.14031 7.54111 8.55526 5.53771 10.0126 5.52004C11.5347 5.53336 12.5365 7.53128 12.2595 9.98963Z" fill="#FFF1A6"/>
<path d="M22.0109 17.7909C19.6593 18.4451 18.1168 20.164 18.4811 21.6089C18.8455 23.0539 21.0179 23.7541 23.3695 23.0999C25.7212 22.4457 27.2637 20.7268 26.8993 19.2819C26.4672 17.8045 24.2948 17.1043 22.0109 17.7909Z" fill="#FFF1A6"/>
<path d="M19.7163 9.93041C18.4562 12.2581 16.2374 13.5056 14.8599 12.758C13.4824 12.0103 13.4174 9.49285 14.6775 7.16518C15.9376 4.83752 18.1564 3.58998 19.5339 4.33763C20.9114 5.08528 20.9764 7.60274 19.7163 9.93041Z" fill="#FFF1A6"/>
<path d="M20.8154 10.7004C18.9396 12.3192 18.3085 14.5334 19.289 15.6517C20.335 16.8013 22.633 16.4395 24.4758 14.886C26.3517 13.2672 26.9827 11.053 26.0022 9.93478C25.0548 8.75116 22.6912 9.08159 20.8154 10.7004Z" fill="#FFF1A6"/>
</svg>
