<svg width="63" height="65" viewBox="0 0 63 65" fill="none" xmlns="http://www.w3.org/2000/svg">
<path d="M30.3291 32.1921C25.2186 33.2941 24.8123 38.2419 20.8259 43.4843C15.1063 51.1545 17.2403 56.5816 21.5995 56.9869C25.9586 57.3921 28.7036 51.9834 33.3519 51.4151C37.8849 50.5534 42.2135 54.7261 46.1407 52.7511C50.1256 50.9227 50.4746 44.9747 42.6821 39.6829C37.4582 36.2239 35.4682 31.5903 30.3291 32.1921Z" fill="#002A48"/>
<path d="M16.3756 30.05C19.8028 33.8845 20.9543 38.8471 18.9703 41.1235C16.8489 43.4572 12.3702 42.2367 8.943 38.4022C5.51581 34.5677 4.36425 29.6052 6.34825 27.3287C8.46971 24.9951 12.9484 26.2155 16.3756 30.05Z" fill="#002A48"/>
<path d="M41.923 25.7921C39.691 30.3325 40.2257 35.0979 42.9677 36.5372C45.7097 37.9764 49.793 35.5897 52.025 31.0493C54.2571 26.5089 53.7224 21.7435 50.9804 20.3042C48.0945 18.9249 44.0112 21.3115 41.923 25.7921Z" fill="#002A48"/>
<path d="M26.5757 18.4456C28.4435 23.6182 27.3143 28.7754 24.2546 29.868C21.1948 30.9606 17.204 27.5727 15.3363 22.4001C13.4685 17.2275 14.5977 12.0702 17.6574 10.9776C20.7172 9.88498 24.7079 13.273 26.5757 18.4456Z" fill="#002A48"/>
<path d="M29.2856 17.8143C29.2052 22.9561 31.7653 26.9994 34.8514 27.0338C38.0765 27.0104 40.6877 22.9581 40.8238 17.9579C40.9043 12.8161 38.3441 8.77279 35.258 8.73835C32.1162 8.5623 29.3661 12.6725 29.2856 17.8143Z" fill="#002A48"/>
</svg>
