<svg width="74" height="80" viewBox="0 0 74 80" fill="none" xmlns="http://www.w3.org/2000/svg">
<path d="M35.4546 38.3218C39.4183 44.126 44.8382 41.6056 52.5083 43.6041C63.7037 46.3081 67.9109 40.5085 65.7022 34.6666C63.5657 29.0635 56.6027 28.6724 53.057 23.5202C49.5114 18.3681 51.1121 10.5212 46.8489 6.64656C42.5856 2.77189 36.4327 5.78879 35.6729 18.6056C35.2387 27.3889 31.6922 32.4532 35.4546 38.3218Z" fill="#3E5365"/>
<path d="M41.3322 55.5633C42.7625 49.3426 47.0006 45.1049 50.5413 46.5912C54.0821 48.0776 55.9605 54.2872 54.4012 60.8111C52.9709 67.0318 48.7328 71.2695 45.192 69.7832C41.6512 68.2968 39.9742 62.0228 41.3322 55.5633Z" fill="#3E5365"/>
<path d="M22.4066 27.3046C28.2186 27.5402 32.6734 24.0189 32.4518 19.6367C32.2302 15.2544 27.3631 11.5731 21.6233 11.5763C15.8113 11.3407 11.3565 14.8619 11.5781 19.2442C11.7275 23.3876 16.5946 27.069 22.4066 27.3046Z" fill="#3E5365"/>
<path d="M23.7472 50.713C27.7685 45.7588 33.4774 44.1937 36.4451 47.4352C39.4128 50.6767 38.6019 57.4849 34.5806 62.4392C30.5593 67.3934 24.8503 68.9585 21.8826 65.717C19.1162 62.4111 19.7981 55.9061 23.7472 50.713Z" fill="#3E5365"/>
<path d="M21.729 47.6916C27.0045 44.6935 29.9316 39.0417 27.955 34.6971C26.0507 30.5914 20.2232 29.5749 14.7465 32.6374C9.47101 35.6354 6.5439 41.2873 8.52048 45.6318C10.4248 49.7375 16.4536 50.6896 21.729 47.6916Z" fill="#3E5365"/>
</svg>
