<svg width="28" height="28" viewBox="0 0 28 28" fill="none" xmlns="http://www.w3.org/2000/svg">
<path d="M13.3988 13.8606C11.04 12.9602 9.63911 14.8702 6.70504 15.9549C2.45819 17.5716 1.97345 20.348 3.64964 21.6646C5.32582 22.9811 7.79528 21.5008 9.83241 22.4968C11.8957 23.3426 12.619 26.1872 14.7132 26.4192C16.7944 26.7261 18.4216 24.3931 16.5654 20.1774C15.299 17.3874 15.6444 14.9725 13.3988 13.8606Z" fill="#FFF1A6"/>
<path d="M8.24438 9.30183C8.68449 11.7704 7.91516 14.098 6.53793 14.5021C5.09037 14.8933 3.56895 13.2128 3.12884 10.7442C2.68873 8.27562 3.45807 5.94811 4.8353 5.54393C6.28286 5.15275 7.80427 6.83323 8.24438 9.30183Z" fill="#FFF1A6"/>
<path d="M19.7235 14.3132C17.6799 15.575 16.7083 17.6592 17.467 18.9702C18.2257 20.2812 20.4864 20.3866 22.5299 19.1248C24.5735 17.8631 25.5451 15.7788 24.7864 14.4678C23.9541 13.1432 21.6934 13.0379 19.7235 14.3132Z" fill="#FFF1A6"/>
<path d="M15.3002 7.26418C14.7704 9.8665 13.0226 11.671 11.5023 11.3084C9.98195 10.9458 9.20057 8.51037 9.73033 5.90805C10.2601 3.30573 12.008 1.50117 13.5283 1.86382C15.0486 2.22646 15.8299 4.66186 15.3002 7.26418Z" fill="#FFF1A6"/>
<path d="M16.5627 7.72246C15.2463 9.79767 15.2808 12.1224 16.5305 12.9515C17.8513 13.7938 19.9275 12.8312 21.2313 10.8284C22.5477 8.75319 22.5133 6.42845 21.2636 5.59933C20.0265 4.69775 17.8791 5.64725 16.5627 7.72246Z" fill="#FFF1A6"/>
</svg>
