<svg width="24" height="24" viewBox="0 0 24 24" fill="none" xmlns="http://www.w3.org/2000/svg">
<path d="M10 16V9L8 10.3125" stroke="white" stroke-width="1.5" stroke-linecap="round" stroke-linejoin="round"/>
<path d="M13 15.5627C13.3134 15.8373 13.7029 16 14.125 16C15.1605 16 16 15.0206 16 13.8125C16 12.6044 15.1605 11.625 14.125 11.625C13.7029 11.625 13.3134 11.7877 13 12.0623L13.375 9H16" stroke="white" stroke-width="1.5" stroke-linecap="round" stroke-linejoin="round"/>
<path d="M20.1839 3.80412C25.0309 8.19774 25.2961 15.579 20.7762 20.2905C16.2563 25.0021 8.66302 25.2599 3.81605 20.8663C-1.03092 16.4726 -1.29608 9.09142 3.22379 4.37984C5.7947 1.69988 9.35998 0.460893 12.8486 0.699234M11.1429 -2L14.1992 0.832938L11.1429 3.87098" stroke="white" stroke-width="2" stroke-linecap="round" stroke-linejoin="round"/>
</svg>
