<svg width="24" height="24" viewBox="0 0 24 24" fill="none" xmlns="http://www.w3.org/2000/svg">
<path d="M10 16V9L8 10.3125" stroke="white" stroke-width="1.5" stroke-linecap="round" stroke-linejoin="round"/>
<path d="M13 15.5627C13.3134 15.8373 13.7029 16 14.125 16C15.1605 16 16 15.0206 16 13.8125C16 12.6044 15.1605 11.625 14.125 11.625C13.7029 11.625 13.3134 11.7877 13 12.0623L13.375 9H16" stroke="white" stroke-width="1.5" stroke-linecap="round" stroke-linejoin="round"/>
<path d="M3.81605 3.80412C-1.03092 8.19774 -1.29608 15.579 3.22379 20.2905C7.74366 25.0021 15.337 25.2599 20.1839 20.8663C25.0309 16.4726 25.2961 9.09142 20.7762 4.37984C18.2053 1.69988 14.64 0.460893 11.1514 0.699234M12.8571 -2L9.80077 0.832938L12.8571 3.87098" stroke="white" stroke-width="2" stroke-linecap="round" stroke-linejoin="round"/>
</svg>
