<svg width="42" height="42" viewBox="0 0 42 42" fill="none" xmlns="http://www.w3.org/2000/svg">
<path d="M20.615 22.26H21.385C23.2415 22.26 25.022 22.9975 26.3347 24.3102C27.6475 25.623 28.385 27.4035 28.385 29.26V39.375H13.58V29.2775C13.5777 28.3538 13.7582 27.4388 14.1111 26.5852C14.464 25.7316 14.9824 24.9563 15.6364 24.304C16.2903 23.6517 17.0669 23.1352 17.9214 22.7844C18.7759 22.4336 19.6913 22.2554 20.615 22.26Z" stroke="#E18C09" stroke-width="2" stroke-linecap="round" stroke-linejoin="round"/>
<path d="M7.61249 34.44H13.58" stroke="#E18C09" stroke-width="2" stroke-linecap="round" stroke-linejoin="round"/>
<path d="M28.42 34.44H34.3875" stroke="#E18C09" stroke-width="2" stroke-linecap="round" stroke-linejoin="round"/>
<path d="M21 8.4175L34.3875 18.4625L39.305 16.3625L21 2.625L2.69501 16.3625L7.61251 18.4625L21 8.4175Z" stroke="#E18C09" stroke-width="2" stroke-linecap="round" stroke-linejoin="round"/>
<path d="M31.6575 39.375H10.3425C9.65649 39.4085 8.98499 39.1699 8.47384 38.7112C7.96268 38.2525 7.65316 37.6106 7.61249 36.925V18.4625L21 8.41748L34.3875 18.4625V36.925C34.3468 37.6106 34.0373 38.2525 33.5261 38.7112C33.015 39.1699 32.3435 39.4085 31.6575 39.375Z" stroke="#E18C09" stroke-width="2" stroke-linecap="round" stroke-linejoin="round"/>
</svg>
