<svg width="42" height="43" viewBox="0 0 42 43" fill="none" xmlns="http://www.w3.org/2000/svg">
<path d="M14.875 26.75H27.125M14.875 18H21" stroke="#E18C09" stroke-width="2" stroke-linecap="round" stroke-linejoin="round"/>
<path d="M38.4296 19.6987C38.4494 20.0054 38.465 20.3145 38.4765 20.6248C38.5192 21.7845 38.5037 22.9628 38.4296 24.1088C37.9498 31.533 32.1188 37.4466 24.7985 37.9333C22.3011 38.0992 19.6938 38.0989 17.2014 37.9333C16.3432 37.8763 15.4077 37.6713 14.602 37.3395C13.7056 36.9705 13.2573 36.7857 13.0295 36.8138C12.8017 36.8418 12.4712 37.0854 11.8102 37.573C10.6447 38.4324 9.17642 39.0496 6.999 38.9966C5.89795 38.9698 5.34744 38.9565 5.10097 38.5362C4.85451 38.116 5.16146 37.5343 5.77536 36.3711C6.62679 34.7576 7.16626 32.9105 6.34884 31.4305C4.941 29.3163 3.74517 26.8128 3.57042 24.1088C3.47653 22.656 3.47653 21.1515 3.57042 19.6987C4.05021 12.2745 9.88118 6.36083 17.2014 5.87423C18.1631 5.8103 18.267 5.771 19.25 5.75635" stroke="#E18C09" stroke-width="2" stroke-linecap="round" stroke-linejoin="round"/>
<path d="M26.2763 4.67657C28.1533 3.55711 29.7917 4.00825 30.776 4.72685C31.1796 5.0215 31.3814 5.16881 31.5 5.16881C31.6187 5.16881 31.8204 5.0215 32.224 4.72685C33.2084 4.00825 34.8467 3.55711 36.7238 4.67657C39.1874 6.14575 39.7448 10.9926 34.0624 15.0817C32.98 15.8606 32.4389 16.25 31.5 16.25C30.5611 16.25 30.02 15.8606 28.9377 15.0817C23.2552 10.9926 23.8126 6.14575 26.2763 4.67657Z" stroke="#E18C09" stroke-width="2" stroke-linecap="round"/>
</svg>
