<svg width="22" height="22" viewBox="0 0 22 22" fill="none" xmlns="http://www.w3.org/2000/svg">
<path d="M12.8333 2.01668C12.241 1.89643 11.6278 1.83331 11 1.83331C5.93737 1.83331 1.83331 5.93737 1.83331 11C1.83331 16.0625 5.93737 20.1666 11 20.1666C16.0625 20.1666 20.1666 16.0625 20.1666 11C20.1666 10.3722 20.1035 9.759 19.9833 9.16665" stroke="#271802" stroke-width="1.5" stroke-linecap="round"/>
<path d="M11 8.24998C9.98747 8.24998 9.16669 8.86559 9.16669 9.62498C9.16669 10.3843 9.98747 11 11 11C12.0126 11 12.8334 11.6156 12.8334 12.375C12.8334 13.1343 12.0126 13.75 11 13.75M11 8.24998C11.7983 8.24998 12.4773 8.6326 12.729 9.16665M11 8.24998V7.33331M11 13.75C10.2018 13.75 9.52272 13.3674 9.271 12.8333M11 13.75V14.6666" stroke="#271802" stroke-width="1.5" stroke-linecap="round"/>
<path d="M15.5815 6.41848L19.4094 2.58846M20.1648 5.9402L20.0565 3.10633C20.0565 2.43841 19.6577 2.02225 18.9313 1.96977L16.0675 1.83514" stroke="#271802" stroke-width="1.5" stroke-linecap="round" stroke-linejoin="round"/>
</svg>
