<svg width="60" height="64" viewBox="0 0 60 64" fill="none" xmlns="http://www.w3.org/2000/svg">
<path d="M29.2793 30.5721C25.4698 27.085 21.4017 29.6978 15.0373 29.6237C5.77758 29.5574 2.91019 34.5451 5.23302 38.33C7.42542 42.0593 13.2678 41.1344 16.373 44.4766C19.7128 47.6082 19.0629 53.5413 22.9502 55.6643C26.707 57.7317 31.427 54.6206 30.9018 45.0815C30.5082 38.7035 32.9846 34.3253 29.2793 30.5721Z" fill="#FDEED8"/>
<path d="M22.9882 19.0412C22.4423 23.9318 19.3917 27.4442 16.3398 27.0746C13.2879 26.705 11.2256 22.255 11.902 17.4199C12.448 12.5293 15.3681 8.96135 18.5504 9.38656C21.7328 9.81177 23.5342 14.1506 22.9882 19.0412Z" fill="#FDEED8"/>
<path d="M40.9144 36.6198C36.1936 37.4017 32.9343 40.6698 33.5093 43.8648C34.0843 47.0598 38.3888 48.8949 43.0314 47.9243C47.7522 47.1424 51.0115 43.8742 50.4364 40.6793C49.8614 37.4843 45.5569 35.6492 40.9144 36.6198Z" fill="#FDEED8"/>
<path d="M37.6477 19.7015C34.9105 23.9685 30.477 25.9597 27.6854 24.1486C24.8938 22.3374 24.9181 17.2244 27.6553 12.9574C30.3925 8.69046 34.8259 6.69922 37.6175 8.51038C40.4091 10.3215 40.3849 15.4346 37.6477 19.7015Z" fill="#FDEED8"/>
<path d="M39.4998 21.578C35.4058 24.6455 33.7642 29.2243 35.7476 31.9329C37.7309 34.6415 42.5563 34.3699 46.6503 31.3024C50.7443 28.2349 52.3859 23.6561 50.4025 20.9475C48.4192 18.2389 43.5938 18.5105 39.4998 21.578Z" fill="#FDEED8"/>
</svg>
