<svg width="63" height="65" viewBox="0 0 63 65" fill="none" xmlns="http://www.w3.org/2000/svg">
<path d="M31.0049 32.1919C25.9089 33.2939 25.5037 38.2417 21.5286 43.4841C15.8252 51.1543 17.9531 56.5814 22.3 56.9867C26.6469 57.3919 29.3841 51.9832 34.0193 51.4149C38.5394 50.5532 42.8559 54.7259 46.7719 52.7508C50.7455 50.9224 51.0936 44.9744 43.3231 39.6826C38.1139 36.2237 36.1295 31.5901 31.0049 32.1919Z" fill="#FBDAA7"/>
<path d="M17.0902 30.0502C20.5077 33.8847 21.6561 38.8472 19.6777 41.1237C17.5622 43.4573 13.0961 42.2369 9.67864 38.4024C6.26113 34.5679 5.11282 29.6053 7.09122 27.3289C9.2067 24.9952 13.6727 26.2157 17.0902 30.0502Z" fill="#FBDAA7"/>
<path d="M42.5658 25.792C40.34 30.3324 40.8732 35.0978 43.6075 36.537C46.3417 37.9763 50.4135 35.5896 52.6392 31.0492C54.865 26.5087 54.3318 21.7433 51.5975 20.3041C48.7198 18.9247 44.6481 21.3114 42.5658 25.792Z" fill="#FBDAA7"/>
<path d="M27.262 18.4456C29.1245 23.6182 27.9985 28.7755 24.9474 29.8681C21.8963 30.9607 17.9168 27.5727 16.0543 22.4001C14.1918 17.2275 15.3178 12.0702 18.3689 10.9776C21.42 9.88502 25.3995 13.273 27.262 18.4456Z" fill="#FBDAA7"/>
<path d="M29.9644 17.8141C29.8841 22.9559 32.4371 26.9992 35.5145 27.0337C38.7304 27.0103 41.3342 22.9579 41.47 17.9577C41.5502 12.8159 38.9973 8.77262 35.9199 8.73819C32.787 8.56213 30.0446 12.6723 29.9644 17.8141Z" fill="#FBDAA7"/>
</svg>
