<svg width="86" height="86" viewBox="0 0 86 86" fill="none" xmlns="http://www.w3.org/2000/svg">
<path d="M45.2899 42.9264C38.6723 40.6115 35.8173 45.8585 28.4806 48.8067C17.898 53.2814 17.9582 60.4461 23.1903 63.8338C28.2229 67.0722 34.0404 63.2509 39.9364 65.2895C45.8324 67.3282 49.1961 74.5916 54.9111 75.1764C60.6261 75.7611 63.775 69.6793 56.7929 58.9172C51.9388 51.5933 51.7841 45.4127 45.2899 42.9264Z" fill="#FDEED8"/>
<path d="M30.3627 32.5475C32.8999 38.4014 32.0103 44.3279 28.2894 45.2354C24.5686 46.1428 19.3838 42.2631 16.7705 36.0886C14.2333 30.2347 15.123 24.3082 18.8438 23.4007C22.5646 22.4932 27.6261 26.5444 30.3627 32.5475Z" fill="#FDEED8"/>
<path d="M62.2826 44.0393C57.4807 47.3021 55.9927 52.781 58.7662 56.1747C61.5396 59.5685 67.6245 59.639 72.2271 56.227C77.029 52.9643 78.517 47.4854 75.7435 44.0917C73.1695 40.8471 67.0845 40.7766 62.2826 44.0393Z" fill="#FDEED8"/>
<path d="M47.3416 26.0041C47.0502 32.3783 43.3975 37.0284 39.0968 36.1835C34.7962 35.3386 31.414 29.3799 31.7055 23.0057C31.9969 16.6315 35.6496 11.9814 39.9503 12.8263C44.1276 13.8426 47.4336 19.4807 47.3416 26.0041Z" fill="#FDEED8"/>
<path d="M50.7501 27.2359C48.2939 32.7813 49.2935 39.0667 53.4524 41.3877C57.4119 43.5595 62.6888 40.9158 65.2683 35.199C67.7245 29.6536 66.7249 23.3681 62.566 21.0471C58.6065 18.8754 53.2063 21.6905 50.7501 27.2359Z" fill="#FDEED8"/>
</svg>
