<svg width="67" height="69" viewBox="0 0 67 69" fill="none" xmlns="http://www.w3.org/2000/svg">
<path d="M32.9072 34.3053C28.1145 36.3621 28.6582 41.2966 25.7536 47.2033C21.6144 55.8239 24.7359 60.7441 29.08 60.3102C33.4241 59.8762 35.0819 54.0431 39.5238 52.5982C43.7969 50.8874 48.828 54.1575 52.2963 51.4694C55.849 48.9143 55.059 43.0089 46.4243 39.3013C40.6527 36.9027 37.8232 32.7339 32.9072 34.3053Z" fill="#FCE2BA"/>
<path d="M18.8414 34.8654C22.9257 37.9755 24.9972 42.6271 23.4883 45.2403C21.8557 47.9359 17.2395 47.5924 13.1552 44.4823C9.07089 41.3723 6.99944 36.7206 8.50835 34.1074C10.1409 31.4119 14.7571 31.7553 18.8414 34.8654Z" fill="#FCE2BA"/>
<path d="M43.0379 25.8105C41.717 30.6935 43.1471 35.2693 46.105 36.1589C49.0629 37.0484 52.6057 33.9265 53.9266 29.0436C55.2475 24.1607 53.8174 19.5849 50.8596 18.6953C47.7723 17.8919 44.2294 21.0138 43.0379 25.8105Z" fill="#FCE2BA"/>
<path d="M26.6178 21.5275C29.4303 26.2487 29.3063 31.5266 26.5191 33.183C23.7319 34.8393 19.1809 32.2751 16.3684 27.554C13.5559 22.8328 13.6799 17.5548 16.4671 15.8984C19.2543 14.2421 23.8053 16.8063 26.6178 21.5275Z" fill="#FCE2BA"/>
<path d="M29.1499 20.3909C30.0495 25.4536 33.3248 28.9341 36.3522 28.3791C39.5047 27.7407 41.2896 23.2646 40.4714 18.3303C39.5719 13.2676 36.2965 9.7871 33.2691 10.3422C30.1602 10.7688 28.2503 15.3283 29.1499 20.3909Z" fill="#FCE2BA"/>
</svg>
