<svg width="80" height="75" viewBox="0 0 80 75" fill="none" xmlns="http://www.w3.org/2000/svg">
<path d="M41.1282 36.1262C35.4155 40.198 38.0296 45.5698 36.1804 53.276C33.6937 64.5201 39.5545 68.6179 45.3376 66.3001C50.884 64.059 51.1439 57.0898 56.2143 53.4482C61.2847 49.8066 69.1379 51.26 72.9213 46.925C76.7047 42.5899 73.5819 36.4945 60.7893 35.9751C52.0242 35.7055 46.9089 32.2545 41.1282 36.1262Z" fill="#FDEED8"/>
<path d="M24.0477 42.3257C30.2764 43.6392 34.5806 47.7971 33.1649 51.3651C31.7491 54.9331 25.5933 56.9275 19.0598 55.4907C12.8311 54.1772 8.52682 50.0193 9.94256 46.4513C11.3583 42.8833 17.5822 41.089 24.0477 42.3257Z" fill="#FDEED8"/>
<path d="M51.8681 22.8742C51.7418 28.6896 55.3358 33.0776 59.7008 32.774C64.0657 32.4703 67.6451 27.535 67.5346 21.7963C67.6609 15.9809 64.067 11.5929 59.702 11.8966C55.5738 12.1235 51.9944 17.0588 51.8681 22.8742Z" fill="#FDEED8"/>
<path d="M28.5551 24.6531C33.5696 28.5809 35.2366 34.2595 32.0603 37.2874C28.8841 40.3153 22.081 39.6322 17.0665 35.7044C12.052 31.7766 10.3849 26.098 13.5612 23.0701C16.8055 20.2422 23.3038 20.802 28.5551 24.6531Z" fill="#FDEED8"/>
<path d="M31.5302 22.5788C34.6178 27.7971 40.3075 30.6178 44.602 28.5602C48.6598 26.5792 49.5644 20.7338 46.4088 15.3153C43.3211 10.097 37.6315 7.27632 33.337 9.33396C29.2792 11.3149 28.4426 17.3604 31.5302 22.5788Z" fill="#FDEED8"/>
</svg>
