<svg width="467" height="486" viewBox="0 0 467 486" fill="none" xmlns="http://www.w3.org/2000/svg">
<path d="M430.179 108.775C451.328 150.87 446.864 204.432 440.075 247.529C433.529 290.96 424.899 324.258 409.614 353.312C394.612 382.407 372.993 406.966 345.728 424.152C318.786 441.086 285.913 450.605 247.8 454.001C209.646 457.689 165.685 455.172 124.819 434.338C83.9131 413.797 45.8188 374.899 30.1358 326.748C14.7769 278.347 21.8293 220.692 52.5548 184.649C82.9563 148.856 137.031 134.674 184.64 108.531C232.534 82.4295 274.002 44.0752 318.278 40.0856C362.514 36.3881 409.274 67.0141 430.179 108.775Z" fill="#FCE2BA"/>
</svg>
